<mxfile host="app.diagrams.net" modified="2024-03-20T19:08:26.075Z" agent="Mozilla/5.0 (Windows NT 10.0; Win64; x64) AppleWebKit/537.36 (KHTML, like Gecko) Chrome/122.0.0.0 Safari/537.36" version="24.0.7" etag="MKrxqOuW0A7NYtjoUS1u" type="github">
  <diagram name="PÃ¡gina-1" id="WwU6nu5KZuRDhJ7ggq2u">
    <mxGraphModel>
      <root>
        <mxCell id="0" />
        <mxCell id="1" parent="0" />
      </root>
    </mxGraphModel>
  </diagram>
</mxfile>
